HIERARCHY
ROOT Spine
{
    OFFSET 0.0 0.0 -0.0
    CHANNELS 6 Xposition Yposition Zposition Zrotation Xrotation Yrotation
    JOINT ShoulderCenter
    {
        OFFSET 0.0 30.4871826171875 0.0
        CHANNELS 3 Zrotation Xrotation Yrotation
        JOINT LeftShoulder
        {
            OFFSET 19.478282928466797 0.0 0.0
            CHANNELS 3 Zrotation Xrotation Yrotation
            JOINT LeftElbow
            {
                OFFSET 28.739818572998047 0.0 0.0
                CHANNELS 3 Zrotation Xrotation Yrotation
                JOINT LeftHand
                {
                    OFFSET 29.18942642211914 0.0 0.0
                    CHANNELS 3 Zrotation Xrotation Yrotation
                    End Site
                    {
                        OFFSET 11.67577075958252 0.0 0.0
                    }
                }
            }
        }
        JOINT RightShoulder
        {
            OFFSET -19.478282928466797 0.0 0.0
            CHANNELS 3 Zrotation Xrotation Yrotation
            JOINT RightElbow
            {
                OFFSET -28.739818572998047 0.0 0.0
                CHANNELS 3 Zrotation Xrotation Yrotation
                JOINT RightHand
                {
                    OFFSET -29.18942642211914 0.0 0.0
                    CHANNELS 3 Zrotation Xrotation Yrotation
                    End Site
                    {
                        OFFSET -11.67577075958252 0.0 0.0
                    }
                }
            }
        }
        End Site
        {
            OFFSET 0.0 12.194870948791504 0.0
        }
    }
    JOINT LeftHip
    {
        OFFSET 15.479182015403266 -15.479182015403266 0.0
        CHANNELS 3 Zrotation Xrotation Yrotation
        JOINT LeftKnee
        {
            OFFSET 0.0 -38.83317565917969 0.0
            CHANNELS 3 Zrotation Xrotation Yrotation
            JOINT LeftFoot
            {
                OFFSET 0.0 -44.34248733520508 0.0
                CHANNELS 3 Zrotation Xrotation Yrotation
                End Site
                {
                    OFFSET 0.0 0.0 17.736997604370117
                }
            }
        }
    }
    JOINT RightHip
    {
        OFFSET -15.479182015403266 -15.479182015403266 0.0
        CHANNELS 3 Zrotation Xrotation Yrotation
        JOINT RightKnee
        {
            OFFSET 0.0 -38.83317565917969 0.0
            CHANNELS 3 Zrotation Xrotation Yrotation
            JOINT RightFoot
            {
                OFFSET 0.0 -44.34248733520508 0.0
                CHANNELS 3 Zrotation Xrotation Yrotation
                End Site
                {
                    OFFSET 0.0 0.0 17.736997604370117
                }
            }
        }
    }
}
MOTION
Frames: 7
Frame Time: 0.03333333333333333
73.9000015258789 3.799999952316284 -21.5 0.7563388894977853 -5.466627525572508 -166.5901233425505 -3.961396963794847e-09 2.0405791853911914e-08 -7.148463577949822 121.37155938045221 5.009850279391189 -75.45023449606956 5.5076070588873614e-06 -1.3982544651412465e-06 30.80313775215817 -1.5902773407317584e-15 0.0 0.0 -103.30010202036416 0.8739862744203539 69.02844077509356 -3.3581997607462846e-06 -1.914706031955356e-06 -19.22112493449953 6.3611093629270335e-15 3.1805546814635168e-15 -3.1805546814635168e-15 8.371809896432483 14.947053062153707 -70.93368052572262 -8.217316638661345 6.558515143541712 -8.70855950365084 0.0 0.0 -5.5659706925611536e-15 2.757166672469865 -7.616795181168679 16.182819376436196 1.1675476925557342 7.312480019020238 20.69760401438354 3.975693351829396e-16 -3.706991617503063e-33 -1.0684675883041502e-15
73.79999542236328 3.799999952316284 -21.5 0.3781786267238191 -5.654298357059884 -166.62474189775315 6.111113890010902e-09 3.518981154749447e-07 -7.553028133291461 120.54617641316133 5.072568089744247 -75.11085568896854 2.601382668772002e-06 -1.7979003389001232e-06 29.608100292797445 3.1805546814635176e-15 0.0 0.0 -103.34321798675808 0.40608287470578824 68.84637172693259 -9.407243989860845e-07 9.295369009014172e-07 -19.481525816510104 -4.770832022195275e-15 1.3241718894150476e-31 -3.1805546814635168e-15 7.900314019017513 15.210096511226933 -71.02162415080493 -7.5750301872710155 6.430055548635346 -8.629347680661496 1.8759101766713175e-31 3.1805546814635168e-15 -6.7586786981099735e-15 2.314408549116869 -7.85490563834551 15.772163378889987 1.1321208798470546 7.6348344628336315 21.644048439891723 -5.103579157120495e-32 -7.951386703658792e-16 -7.355032700884382e-15
73.69999694824219 3.799999952316284 -21.399999618530273 0.3781786396963665 -5.841493134479721 -167.09174833326267 -2.7091387485564646e-08 2.0072068472644564e-07 -7.365793111232775 119.46631322914736 4.745179262367206 -74.81511609033441 1.4831640340966876e-06 1.3314224517520567e-06 29.221705665629177 4.770832022195275e-15 2.648343778830095e-31 6.3611093629270335e-15 -104.952274511824 1.1551149722999525 68.88458933151311 -4.548979022131588e-07 3.4430380328135754e-06 -19.836947630458823 3.1805546814635164e-15 -3.1805546814635164e-15 3.1805546814635164e-15 7.7257574806626765 15.092980428753108 -70.78214568710882 -7.6731523241233734 6.293442841726455 -8.351515092787198 0.0 0.0 5.5659706925611536e-15 2.4821349396116714 -8.049717183802466 16.047834497125503 0.7235858836852936 7.830092952786619 22.470515572737785 0.0 0.0 7.181096116741846e-15
73.5 3.9000000953674316 -21.399999618530273 -3.396838282490143e-08 -6.028692948149843 -166.4967714824887 8.484350836379289e-09 1.1107267600645436e-07 -8.11914887353898 115.94325316979923 3.718268159797356 -74.28498825713409 -2.3513515558243293e-07 1.8105983330964147e-06 28.755806985508645 3.1805546814635168e-15 3.1805546814635168e-15 -8.827812596100317e-32 -105.39302965519154 1.0995676262941356 68.70907569310423 9.516324254307297e-07 3.528624372281994e-06 -19.95101964779814 9.541664044390553e-15 -3.1805546814635176e-15 2.648343778830095e-31 7.548387310212701 15.180530854312394 -71.744504976215 -7.03350166917861 5.965371906916897 -8.126091501411056 3.1805546814635176e-15 -1.1034765745125397e-31 -3.975693351829397e-15 1.8056580330582415 -8.280083374086244 15.197694127168836 1.0256724743197878 7.837375173586549 22.366642886248506 0.0 0.0 -6.7835267815589065e-15
73.5 3.9000000953674316 -21.399999618530273 0.37819310088284286 -6.0285625035441415 -166.5683776044402 -3.219474872728984e-08 -1.8975948425218617e-07 -8.00622377494067 114.98901110318481 2.963269559109694 -74.02292035010919 -3.2214598760141844e-07 3.1105517303338193e-07 28.560003416157503 4.770832022195275e-15 0.0 0.0 -106.09360398755048 1.6358533922987673 69.17242224199005 -5.9494427456003155e-08 1.483028607058655e-06 -20.633080551373105 -1.5902773407317588e-15 -4.4139062980501586e-32 3.1805546814635176e-15 7.732901650343842 15.14683560239279 -70.46945748738416 -6.835005199299763 6.221470516265711 -8.431326542230519 0.0 0.0 -5.963540027744093e-15 2.3321951227228443 -8.396514945132525 15.52788820479823 0.915573369234123 7.8925927867369206 22.752960808424717 0.0 0.0 2.6587449290359084e-15
73.4000015258789 3.9000000953674316 -21.399999618530273 0.1891057889494738 -6.028660799548759 -166.00444132209367 -9.707046137139413e-08 -1.1048316422857615e-07 -8.605744324152386 115.54022805992234 3.1080279871164924 -74.23424809346331 6.322829914067418e-07 2.966619817489509e-06 28.51172331006188 1.5902773407317584e-15 -3.1805546814635168e-15 6.3611093629270335e-15 -106.58682527148143 1.7914802245896584 69.01035867628266 1.0786944227682363e-06 -3.0532776877535596e-06 -20.41508825935247 -3.1805546814635168e-15 -3.1805546814635168e-15 3.1805546814635168e-15 8.028385738796862 15.085922934294693 -71.84689459369241 -7.066491080897788 5.567903622231681 -7.624928484140918 -6.3611093629270335e-15 3.1805546814635168e-15 -1.1927080055488186e-15 2.241858039708073 -8.26644957165033 15.149792405384522 0.742629606431462 7.831458541606056 22.564605708704057 0.0 0.0 -2.310871760750836e-15
73.4000015258789 3.9000000953674316 -21.399999618530273 0.18910582957553235 -6.028661162472317 -165.53475890525 -1.1396437215071177e-07 -4.277762595835076e-07 -8.942535028602853 115.24065805363277 2.9756181479897488 -74.01212523197931 -3.822326003741717e-06 4.989061862038622e-06 28.400474270252392 -3.1805546814635168e-15 0.0 0.0 -107.06435628952008 2.2419001527673306 69.29857878557158 -7.249348348637868e-07 -6.07678630744484e-07 -20.979591678908523 4.770832022195277e-15 -3.1805546814635176e-15 3.1805546814635176e-15 8.12830129637252 14.967424808612238 -71.5320672367045 -7.0614132673038785 5.591217568656855 -7.699313162045005 -6.361109362927033e-15 3.1805546814635164e-15 1.987846675914698e-15 2.101225193785762 -8.56855163566272 14.255599068717546 0.828052245177927 8.386675519623163 24.333151190737112 0.0 0.0 2.286023677301902e-15
